<?xml version="1.0" encoding="iso-8859-1"?>
<!-- Generator: Adobe Illustrator 19.0.0, SVG Export Plug-In . SVG Version: 6.00 Build 0)  -->
<svg xmlns="http://www.w3.org/2000/svg" xmlns:xlink="http://www.w3.org/1999/xlink" version="1.1" id="Layer_1" x="0px" y="0px" viewBox="0 0 512 512" style="enable-background:new 0 0 512 512;" xml:space="preserve">
<g>
	<g>
		<path d="M279.532,23.532h-47.064c-24.379,0-44.214,19.835-44.214,44.214v376.508c0,24.38,19.835,44.215,44.214,44.215h47.064    c24.379,0,44.214-19.835,44.215-44.214V67.746C323.747,43.367,303.911,23.532,279.532,23.532z M282.382,444.254    c0,1.572-1.279,2.85-2.85,2.85h-47.064c-1.571,0-2.85-1.279-2.85-2.85V67.746c0-1.571,1.279-2.85,2.85-2.85h47.064    c1.572,0,2.85,1.279,2.85,2.85V444.254z"/>
	</g>
</g>
<g>
	<g>
		<path d="M467.786,141.191h-47.064c-24.38,0-44.215,19.835-44.215,44.214v258.849c0,24.38,19.836,44.215,44.215,44.215h47.064    c24.38,0,44.214-19.835,44.214-44.214v-258.85C512,161.025,492.165,141.191,467.786,141.191z M470.636,444.254    c0,1.572-1.279,2.85-2.85,2.85h-47.064c-1.572,0-2.85-1.279-2.85-2.85v-258.85c0-1.571,1.279-2.85,2.85-2.85h47.064    c1.571,0,2.85,1.279,2.85,2.85V444.254z"/>
	</g>
</g>
<g>
	<g>
		<path d="M91.278,258.849H44.214C19.835,258.849,0,278.684,0,303.064v141.191c0,24.379,19.835,44.214,44.214,44.214h47.064    c24.379,0,44.214-19.835,44.214-44.214V303.064C135.492,278.683,115.657,258.849,91.278,258.849z M94.127,444.254    c0,1.572-1.279,2.85-2.85,2.85H44.214c-1.571,0-2.85-1.279-2.85-2.85V303.064c0-1.572,1.279-2.851,2.85-2.851h47.064    c1.571,0,2.85,1.279,2.85,2.851V444.254z"/>
	</g>
</g>
<g>
</g>
<g>
</g>
<g>
</g>
<g>
</g>
<g>
</g>
<g>
</g>
<g>
</g>
<g>
</g>
<g>
</g>
<g>
</g>
<g>
</g>
<g>
</g>
<g>
</g>
<g>
</g>
<g>
</g>
</svg>
